<?xml version="1.0" encoding="utf-8"?>
<!-- Generator: Adobe Illustrator 14.0.0, SVG Export Plug-In . SVG Version: 6.00 Build 43363)  -->
<!DOCTYPE svg PUBLIC "-//W3C//DTD SVG 1.1//EN" "http://www.w3.org/Graphics/SVG/1.1/DTD/svg11.dtd">
<svg version="1.1" id="Layer_1" xmlns="http://www.w3.org/2000/svg" xmlns:xlink="http://www.w3.org/1999/xlink" x="0px" y="0px"
	 width="538px" height="159px" viewBox="0 0 538 159" enable-background="new 0 0 538 159" xml:space="preserve">
<polygon fill="#004379" points="194.765,44.178 194.765,47.576 190.038,47.576 190.038,59.955 185.918,59.955 185.918,47.576 
	181.238,47.576 181.238,44.178 "/>
<polygon fill="#004379" points="208.872,44.178 208.872,47.463 200.545,47.463 200.545,50.412 208.061,50.412 208.061,53.676 
	200.545,53.698 200.545,56.667 209.098,56.667 209.098,59.955 196.426,59.955 196.426,44.178 "/>
<polygon fill="#004379" points="215.529,44.178 215.529,50.615 221.898,50.615 221.898,44.178 226.017,44.178 226.017,59.955 
	221.898,59.955 221.898,53.901 215.529,53.901 215.529,59.955 211.41,59.955 211.41,44.178 "/>
<polygon fill="#004379" points="243.68,44.178 243.68,59.955 240.078,59.955 232.921,50.525 232.921,59.955 229.073,59.955 
	229.073,44.178 232.697,44.178 239.875,53.676 239.854,44.178 "/>
<rect x="246.757" y="44.178" fill="#004379" width="4.119" height="15.777"/>
<g>
	<defs>
		<rect id="SVGID_1_" x="-56.5" y="-31.5" width="666" height="232"/>
	</defs>
	<clipPath id="SVGID_2_">
		<use xlink:href="#SVGID_1_"  overflow="visible"/>
	</clipPath>
	<path clip-path="url(#SVGID_2_)" fill="#004379" d="M267.731,57.299c-1.689,1.777-4.209,2.948-6.55,2.948
		c-4.749,0-8.282-3.534-8.282-8.215c0-4.636,3.624-8.102,8.44-8.102c2.341,0,4.794,1.058,6.369,2.723l-2.385,2.881
		c-1.036-1.305-2.543-2.116-3.916-2.116c-2.431,0-4.277,1.959-4.277,4.569c0,2.589,1.846,4.57,4.277,4.57
		c1.305,0,2.813-0.721,3.916-1.846L267.731,57.299z M259.472,42.917l-2.453-3.443h2.881l1.327,1.507l1.35-1.507h2.881l-2.453,3.443
		H259.472z"/>
	<polygon clip-path="url(#SVGID_2_)" fill="#004379" points="279.633,59.955 275.491,53.832 273.511,56.039 273.511,59.955 
		269.392,59.955 269.392,44.178 273.511,44.178 273.511,51.019 279.43,44.178 284.201,44.178 278.35,50.682 284.562,59.955 	"/>
	<path clip-path="url(#SVGID_2_)" fill="#004379" d="M301.167,52.033c0,4.68-3.646,8.214-8.53,8.214s-8.53-3.51-8.53-8.214
		c0-4.66,3.646-8.103,8.53-8.103S301.167,47.396,301.167,52.033 M288.338,52.055c0,2.656,2.003,4.682,4.344,4.682
		c2.363,0,4.254-2.026,4.254-4.682c0-2.633-1.891-4.637-4.254-4.637S288.338,49.422,288.338,52.055"/>
	<polygon clip-path="url(#SVGID_2_)" fill="#004379" points="311.062,44.178 314.999,55.588 318.962,44.178 323.192,44.178 
		317.026,59.955 312.749,59.955 306.628,44.178 	"/>
	<polygon clip-path="url(#SVGID_2_)" fill="#004379" points="337.209,44.178 337.209,47.463 328.882,47.463 328.882,50.412 
		336.398,50.412 336.398,53.676 328.882,53.698 328.882,56.667 337.435,56.667 337.435,59.955 324.763,59.955 324.763,44.178 	"/>
	<polygon clip-path="url(#SVGID_2_)" fill="#004379" points="343.867,44.178 343.867,56.444 350.552,56.444 350.552,59.955 
		339.748,59.955 339.748,44.178 	"/>
	<polygon clip-path="url(#SVGID_2_)" fill="#004379" points="364.839,44.178 364.839,47.463 356.512,47.463 356.512,50.412 
		364.028,50.412 364.028,53.676 356.512,53.698 356.512,56.667 365.064,56.667 365.064,59.955 352.393,59.955 352.393,44.178 	"/>
	<path clip-path="url(#SVGID_2_)" fill="#004379" d="M374.085,56.736c1.755,0,2.971-1.238,2.971-3.286v-9.273h4.118v9.273
		c0,4.141-2.745,6.797-7.111,6.797s-7.202-2.656-7.202-6.797v-9.273h4.118v9.273C370.979,55.475,372.307,56.736,374.085,56.736"/>
	<path clip-path="url(#SVGID_2_)" fill="#004379" d="M397.711,57.299c-1.688,1.777-4.209,2.948-6.55,2.948
		c-4.749,0-8.282-3.534-8.282-8.215c0-4.636,3.624-8.102,8.44-8.102c2.341,0,4.794,1.058,6.369,2.723l-2.386,2.881
		c-1.035-1.305-2.543-2.116-3.916-2.116c-2.431,0-4.276,1.959-4.276,4.569c0,2.589,1.846,4.57,4.276,4.57
		c1.306,0,2.813-0.721,3.916-1.846L397.711,57.299z M389.451,42.917l-2.453-3.443h2.881l1.327,1.507l1.351-1.507h2.881l-2.453,3.443
		H389.451z"/>
	<rect x="399.372" y="44.178" clip-path="url(#SVGID_2_)" fill="#004379" width="4.119" height="15.777"/>
	<polygon clip-path="url(#SVGID_2_)" fill="#004379" points="410.646,44.178 410.646,56.444 417.33,56.444 417.33,59.955 
		406.526,59.955 406.526,44.178 	"/>
	<rect x="419.171" y="44.178" clip-path="url(#SVGID_2_)" fill="#004379" width="4.119" height="15.777"/>
	<path clip-path="url(#SVGID_2_)" fill="#004379" d="M438.682,55.273c0,3.241-2.836,4.929-6.348,4.929
		c-2.633,0-5.378-0.99-7.269-2.565l1.598-3.219c1.62,1.44,4.074,2.408,5.717,2.408c1.216,0,1.98-0.45,1.98-1.328
		c0-2.768-8.305-1.102-8.305-6.774c0-2.971,2.498-4.862,6.302-4.862c2.318,0,4.659,0.72,6.302,1.779l-1.553,3.285
		c-1.666-0.967-3.781-1.688-5.087-1.688c-0.99,0-1.643,0.361-1.643,1.104C430.377,51.042,438.682,49.512,438.682,55.273
		 M430.354,42.917l-2.453-3.443h2.881l1.327,1.507l1.35-1.507h2.882l-2.453,3.443H430.354z"/>
	<polygon clip-path="url(#SVGID_2_)" fill="#004379" points="453.194,44.178 453.194,47.576 448.469,47.576 448.469,59.955 
		444.35,59.955 444.35,47.576 439.668,47.576 439.668,44.178 	"/>
	<polygon clip-path="url(#SVGID_2_)" fill="#004379" points="467.302,44.178 467.302,47.463 458.975,47.463 458.975,50.412 
		466.491,50.412 466.491,53.676 458.975,53.698 458.975,56.667 467.527,56.667 467.527,59.955 454.855,59.955 454.855,44.178 	"/>
	<path clip-path="url(#SVGID_2_)" fill="#004379" d="M481.992,56.736c1.755,0,2.971-1.238,2.971-3.286v-9.273h4.118v9.273
		c0,4.141-2.745,6.797-7.111,6.797s-7.202-2.656-7.202-6.797v-9.273h4.118v9.273C478.886,55.475,480.214,56.736,481.992,56.736"/>
	<polygon clip-path="url(#SVGID_2_)" fill="#004379" points="195.529,70.018 195.529,72.719 187.202,82.487 195.664,82.487 
		195.664,85.795 181.688,85.795 181.688,83.118 190.015,73.327 181.98,73.327 181.98,70.018 	"/>
	<path clip-path="url(#SVGID_2_)" fill="#004379" d="M208.938,83.003h-6.819l-1.103,2.792h-4.231l6.774-15.777h4.231l6.617,15.777
		h-4.389L208.938,83.003z M207.724,79.854l-2.161-5.627l-2.206,5.627H207.724z"/>
	<path clip-path="url(#SVGID_2_)" fill="#004379" d="M225.476,77.738h3.556v6.279c-1.688,1.215-4.367,2.071-6.572,2.071
		c-4.816,0-8.44-3.511-8.44-8.192c0-4.659,3.714-8.125,8.71-8.125c2.363,0,4.861,0.923,6.482,2.364l-2.34,2.88
		c-1.126-1.08-2.724-1.755-4.165-1.755c-2.543,0-4.456,2.002-4.456,4.636c0,2.679,1.936,4.682,4.501,4.682
		c0.788,0,1.779-0.293,2.724-0.766V77.738z"/>
	<path clip-path="url(#SVGID_2_)" fill="#004379" d="M241.135,85.795l-2.295-4.365h-0.09h-2.971v4.365h-4.119V70.018h7.09
		c4.186,0,6.572,2.026,6.572,5.537c0,2.386-0.99,4.142-2.814,5.087l3.287,5.153H241.135z M235.779,78.143h2.993
		c1.665,0,2.633-0.854,2.633-2.453c0-1.553-0.968-2.385-2.633-2.385h-2.993V78.143z"/>
	<polygon clip-path="url(#SVGID_2_)" fill="#004379" points="260.396,70.018 260.396,73.305 252.069,73.305 252.069,76.251 
		259.585,76.251 259.585,79.516 252.069,79.539 252.069,82.51 260.623,82.51 260.623,85.795 247.951,85.795 247.951,70.018 	"/>
	<path clip-path="url(#SVGID_2_)" fill="#004379" d="M276.281,74.002c0,1.643-1.057,2.971-2.723,3.421
		c2.003,0.405,3.241,1.958,3.241,3.984c0,2.701-2.363,4.388-6.077,4.388h-7.787V70.018h7.495
		C274.008,70.018,276.281,71.572,276.281,74.002 M272.05,74.723c0-0.945-0.697-1.508-1.846-1.486h-3.15v3.06h3.15
		C271.353,76.297,272.05,75.713,272.05,74.723 M272.545,80.889c0-0.99-0.9-1.62-2.341-1.598h-3.15V82.6h3.15
		C271.645,82.6,272.545,81.969,272.545,80.889"/>
	<path clip-path="url(#SVGID_2_)" fill="#004379" d="M285.842,82.577c1.755,0,2.971-1.238,2.971-3.286v-9.274h4.118v9.274
		c0,4.14-2.745,6.797-7.111,6.797s-7.202-2.657-7.202-6.797v-9.274h4.118v9.274C282.735,81.316,284.063,82.577,285.842,82.577"/>
	<polygon clip-path="url(#SVGID_2_)" fill="#004379" points="312.592,70.607 312.592,72.147 302.871,83.908 312.7,83.908 
		312.679,85.795 300.094,85.795 300.094,84.254 309.814,72.495 300.354,72.495 300.376,70.607 	"/>
	<path clip-path="url(#SVGID_2_)" fill="#004379" d="M325.415,82.108h-8.006l-1.584,3.687h-2.192l6.749-15.187h2.17l6.726,15.187
		h-2.256L325.415,82.108z M324.612,80.219l-3.211-7.377l-3.168,7.377H324.612z"/>
	<path clip-path="url(#SVGID_2_)" fill="#004379" d="M341.995,78.375h1.844v5.576c-1.519,1.193-3.688,1.996-5.75,1.996
		c-4.448,0-7.941-3.427-7.941-7.767c0-4.319,3.516-7.703,8.05-7.703c2.127,0,4.231,0.802,5.707,2.105l-1.193,1.518
		c-1.215-1.128-2.864-1.78-4.514-1.78c-3.319,0-5.944,2.605-5.944,5.86c0,3.275,2.646,5.901,5.967,5.901
		c1.28,0,2.646-0.434,3.775-1.193V78.375z"/>
	<path clip-path="url(#SVGID_2_)" fill="#004379" d="M357.597,85.795l-3.017-4.773c-0.26,0.021-0.542,0.044-0.846,0.044h-3.862
		v4.729h-2.083V70.608h5.945c3.841,0,6.032,1.865,6.032,5.12c0,2.473-1.172,4.187-3.32,4.925l3.537,5.142H357.597z M353.734,79.178
		c2.582,0,4.036-1.129,4.036-3.385c0-2.191-1.454-3.299-4.036-3.299h-3.862v6.684H353.734z"/>
	<polygon clip-path="url(#SVGID_2_)" fill="#004379" points="374.023,70.607 374.023,72.495 365.562,72.495 365.562,77.182 
		373.134,77.182 373.134,79.068 365.562,79.068 365.562,83.908 374.284,83.908 374.284,85.795 363.479,85.795 363.479,70.607 	"/>
	<path clip-path="url(#SVGID_2_)" fill="#004379" d="M389.127,74.405c0,1.735-1.042,3.015-2.756,3.406
		c2.126,0.326,3.385,1.779,3.385,3.84c0,2.604-2.062,4.145-5.512,4.145h-6.596V70.607h6.487
		C387.239,70.607,389.127,72.039,389.127,74.405 M386.979,74.75c0-1.454-1.085-2.256-2.951-2.235h-4.296v4.535h4.296
		C385.894,77.051,386.979,76.227,386.979,74.75 M387.63,81.391c0-1.541-1.346-2.451-3.603-2.451h-4.296v4.947h4.296
		C386.284,83.909,387.63,82.996,387.63,81.391"/>
	<path clip-path="url(#SVGID_2_)" fill="#004379" d="M404.903,84.06c2.69,0,4.317-1.649,4.317-4.47v-8.982h2.083v8.982
		c0,3.971-2.408,6.357-6.4,6.357c-4.015,0-6.444-2.387-6.444-6.357v-8.982h2.083v8.982C400.542,82.411,402.212,84.06,404.903,84.06"
		/>
	<polygon clip-path="url(#SVGID_2_)" fill="#004379" points="428.187,70.607 428.187,85.795 426.081,85.795 417.402,74.036 
		417.402,85.795 415.319,85.795 415.319,70.607 417.424,70.607 426.124,82.388 426.124,70.607 	"/>
	<rect x="432.549" y="70.607" clip-path="url(#SVGID_2_)" fill="#004379" width="2.083" height="15.188"/>
	<polygon clip-path="url(#SVGID_2_)" fill="#004379" points="439.146,70.607 444.157,83.474 449.17,70.607 451.361,70.607 
		445.199,85.795 443.029,85.795 436.91,70.607 	"/>
	<polygon clip-path="url(#SVGID_2_)" fill="#004379" points="464.186,70.607 464.186,72.495 455.724,72.495 455.724,77.182 
		463.296,77.182 463.296,79.068 455.724,79.068 455.724,83.908 464.446,83.908 464.446,85.795 453.641,85.795 453.641,70.607 	"/>
	<path clip-path="url(#SVGID_2_)" fill="#004379" d="M477.618,85.795l-3.017-4.773c-0.26,0.021-0.542,0.044-0.846,0.044h-3.862
		v4.729h-2.083V70.608h5.945c3.841,0,6.032,1.865,6.032,5.12c0,2.473-1.172,4.187-3.32,4.925l3.537,5.142H477.618z M473.756,79.178
		c2.582,0,4.036-1.129,4.036-3.385c0-2.191-1.454-3.299-4.036-3.299h-3.862v6.684H473.756z"/>
	<path clip-path="url(#SVGID_2_)" fill="#004379" d="M488.078,72.43c-1.758,0-2.907,0.716-2.907,1.909
		c0,3.732,8.396,1.779,8.375,7.29c0,2.626-2.3,4.297-5.598,4.297c-2.278,0-4.492-0.976-5.989-2.387l0.934-1.8
		c1.476,1.431,3.406,2.212,5.077,2.212c2.039,0,3.276-0.845,3.276-2.212c0-3.82-8.396-1.758-8.396-7.227
		c0-2.473,2.147-4.078,5.381-4.078c1.844,0,3.688,0.586,5.012,1.475l-0.868,1.867C490.877,72.821,489.271,72.43,488.078,72.43"/>
	<rect x="496.867" y="70.607" clip-path="url(#SVGID_2_)" fill="#004379" width="2.083" height="15.188"/>
	<polygon clip-path="url(#SVGID_2_)" fill="#004379" points="513.206,70.607 513.206,72.516 508.302,72.516 508.302,85.795 
		506.219,85.795 506.219,72.516 501.337,72.516 501.337,70.607 	"/>
	<polygon clip-path="url(#SVGID_2_)" fill="#004379" points="521.344,80.588 521.344,85.795 519.261,85.795 519.261,80.675 
		513.489,70.608 515.614,70.608 520.302,78.354 524.902,70.608 527.028,70.608 	"/>
	<path clip-path="url(#SVGID_2_)" fill="#004379" d="M197.874,103.178c0,4.34-3.514,7.768-7.984,7.768
		c-4.47,0-7.985-3.428-7.985-7.768s3.515-7.703,7.985-7.703C194.36,95.475,197.874,98.859,197.874,103.178 M184.01,103.178
		c0,3.254,2.69,5.88,5.901,5.88s5.837-2.626,5.837-5.88c0-3.255-2.626-5.837-5.837-5.837
		C186.678,97.341,184.01,99.923,184.01,103.178"/>
	<polygon clip-path="url(#SVGID_2_)" fill="#004379" points="210.852,95.605 210.83,97.492 203.04,97.492 203.04,102.482 
		210.049,102.482 210.049,104.371 203.04,104.371 203.04,110.794 200.957,110.794 200.957,95.605 	"/>
	<path clip-path="url(#SVGID_2_)" fill="#004379" d="M228.818,107.105h-8.006l-1.584,3.688h-2.192l6.749-15.188h2.169l6.726,15.188
		h-2.256L228.818,107.105z M228.016,105.217l-3.211-7.377l-3.168,7.377H228.016z"/>
	<path clip-path="url(#SVGID_2_)" fill="#004379" d="M246.786,100.726c0,3.385-2.17,5.338-5.945,5.338h-3.776v4.729h-2.083V95.605
		h5.859C244.616,95.605,246.786,97.471,246.786,100.726 M244.79,100.791c0-2.191-1.476-3.299-4.036-3.299l-3.689,0.021v6.662h3.689
		C243.314,104.176,244.79,103.047,244.79,100.791"/>
	<path clip-path="url(#SVGID_2_)" fill="#004379" d="M261.434,100.726c0,3.385-2.17,5.338-5.945,5.338h-3.776v4.729h-2.083V95.605
		h5.859C259.264,95.605,261.434,97.471,261.434,100.726 M259.438,100.791c0-2.191-1.476-3.299-4.036-3.299l-3.689,0.021v6.662h3.689
		C257.961,104.176,259.438,103.047,259.438,100.791"/>
	<polygon clip-path="url(#SVGID_2_)" fill="#004379" points="266.36,95.605 266.36,108.906 273,108.906 273,110.794 
		264.277,110.794 264.277,95.605 	"/>
	<rect x="275.734" y="95.605" clip-path="url(#SVGID_2_)" fill="#004379" width="2.083" height="15.188"/>
	<polygon clip-path="url(#SVGID_2_)" fill="#004379" points="292.789,95.605 292.789,97.492 284.327,97.492 284.327,102.18 
		291.899,102.18 291.899,104.066 284.327,104.066 284.327,108.906 293.05,108.906 293.05,110.794 282.244,110.794 282.244,95.605 	
		"/>
	<path clip-path="url(#SVGID_2_)" fill="#004379" d="M310.518,103.199c0,4.34-3.385,7.594-7.897,7.594h-6.119V95.605h6.184
		C307.154,95.605,310.518,98.838,310.518,103.199 M308.392,103.221c0-3.298-2.518-5.729-5.75-5.729h-4.058v11.414h4.145
		C305.918,108.906,308.392,106.497,308.392,103.221"/>
	<path clip-path="url(#SVGID_2_)" fill="#004379" d="M323.929,97.428c-1.758,0-2.907,0.716-2.907,1.909
		c0,3.731,8.396,1.778,8.375,7.29c0,2.626-2.3,4.297-5.598,4.297c-2.278,0-4.492-0.977-5.989-2.387l0.934-1.801
		c1.476,1.432,3.406,2.212,5.077,2.212c2.04,0,3.276-0.845,3.276-2.212c0-3.819-8.397-1.758-8.397-7.227
		c0-2.473,2.148-4.078,5.382-4.078c1.844,0,3.688,0.586,5.012,1.475l-0.868,1.867C326.728,97.818,325.122,97.428,323.929,97.428"/>
	<path clip-path="url(#SVGID_2_)" fill="#004379" d="M339.423,97.318c-3.255,0-5.858,2.582-5.858,5.838
		c0,3.232,2.604,5.836,5.858,5.836c1.605,0,3.211-0.693,4.383-1.822l1.258,1.367c-1.519,1.475-3.623,2.408-5.75,2.408
		c-4.404,0-7.854-3.428-7.854-7.768c0-4.318,3.494-7.703,7.942-7.703c2.104,0,4.188,0.846,5.641,2.278l-1.236,1.497
		C342.655,98.057,341.05,97.318,339.423,97.318"/>
	<rect x="348.06" y="95.605" clip-path="url(#SVGID_2_)" fill="#004379" width="2.083" height="15.188"/>
	<polygon clip-path="url(#SVGID_2_)" fill="#004379" points="365.114,95.605 365.114,97.492 356.652,97.492 356.652,102.18 
		364.225,102.18 364.225,104.066 356.652,104.066 356.652,108.906 365.375,108.906 365.375,110.794 354.569,110.794 354.569,95.605 
			"/>
	<polygon clip-path="url(#SVGID_2_)" fill="#004379" points="381.693,95.605 381.693,110.794 379.588,110.794 370.909,99.033 
		370.909,110.794 368.826,110.794 368.826,95.605 370.931,95.605 379.632,107.387 379.632,95.605 	"/>
	<path clip-path="url(#SVGID_2_)" fill="#004379" d="M392.761,97.318c-3.255,0-5.858,2.582-5.858,5.838
		c0,3.232,2.604,5.836,5.858,5.836c1.604,0,3.211-0.693,4.383-1.822l1.258,1.367c-1.519,1.475-3.623,2.408-5.75,2.408
		c-4.404,0-7.854-3.428-7.854-7.768c0-4.318,3.494-7.703,7.941-7.703c2.105,0,4.188,0.846,5.642,2.278l-1.236,1.497
		C395.993,98.057,394.388,97.318,392.761,97.318"/>
	<polygon clip-path="url(#SVGID_2_)" fill="#004379" points="411.942,95.605 411.942,97.492 403.48,97.492 403.48,102.18 
		411.053,102.18 411.053,104.066 403.48,104.066 403.48,108.906 412.203,108.906 412.203,110.794 401.397,110.794 401.397,95.605 	
		"/>
	<path clip-path="url(#SVGID_2_)" fill="#004379" d="M420.232,97.428c-1.758,0-2.907,0.716-2.907,1.909
		c0,3.731,8.396,1.778,8.375,7.29c0,2.626-2.3,4.297-5.598,4.297c-2.278,0-4.492-0.977-5.989-2.387l0.934-1.801
		c1.476,1.432,3.406,2.212,5.077,2.212c2.039,0,3.276-0.845,3.276-2.212c0-3.819-8.397-1.758-8.397-7.227
		c0-2.473,2.148-4.078,5.382-4.078c1.844,0,3.688,0.586,5.012,1.475l-0.868,1.867C423.031,97.818,421.426,97.428,420.232,97.428"/>
	<path clip-path="url(#SVGID_2_)" fill="#004379" d="M141.589,72.35l9.853-11.387c1.268,3.662,2.233,7.463,2.84,11.387H141.589z
		 M154.993,79.811c0.035,0.885,0.067,1.769,0.067,2.662c0,36.311-29.434,65.746-65.744,65.746
		c-36.309,0-65.745-29.436-65.745-65.746c0-36.309,29.436-65.744,65.745-65.744c24.671,0,46.156,13.595,57.404,33.697h-17.578v7.463
		h13.202l-13.707,15.844v6.078H154.993z M93.095,50.426H66.648v7.67h8.339v21.715h9.726V58.096h8.382V50.426z M127.172,50.426
		h-9.935l-6.035,19.283l-6.077-19.283H94.729l11.149,29.385h10.06L127.172,50.426z"/>
</g>
</svg>
